<svg style="position: absolute; width: 0; height: 0; overflow: hidden;" aria-hidden="true" version="1.1"
  xmlns="http://www.w3.org/2000/svg" xmlns:xlink="http://www.w3.org/1999/xlink">
  <style>
    .default-palette,
    .palette0 {
      color: currentColor;
      --color0: #777;
    }
  </style>
  <defs>
    <symbol id="Workers" viewBox="0 0 36 36" stroke-width="3" stroke="var(--color0, #777)" stroke-linecap="round"
      stroke-linejoin="round" fill="none">
      <path
        d="M24 31.5v-3c0-1.5913-0.6321-3.1174-1.7574-4.2426C21.1174 23.1321 19.5913 22.5 18 22.5H9c-1.5913 0-3.1174 0.6321-4.2426 1.7574C3.6321 25.3826 3 26.9087 3 28.5v3" />
      <path
        d="M24 4.692c1.2866 0.3336 2.4261 1.0849 3.2395 2.1361s1.2548 2.3427 1.2548 3.6719c0 1.3292-0.4414 2.6207-1.2548 3.6719S25.2866 15.9744 24 16.308" />
      <path d="M33 31.5v-3c-1e-3-1.3294-0.4435-2.6208-1.258-3.6715-0.8144-1.0507-1.9548-1.8011-3.242-2.1335" />
      <path d="M13.5 16.5c3.3137 0 6-2.6863 6-6s-2.6863-6-6-6-6 2.6863-6 6 2.6863 6 6 6z" />
    </symbol>
    <symbol id="Worker" viewBox="0 0 20 20" stroke-width="1.66667" stroke="var(--color0, #777)" stroke-linecap="round"
      stroke-linejoin="round" fill="none">
      <path
        d="M15.8334 17.5v-1.6667c0-0.884-0.3512-1.7319-0.9763-2.357S13.3841 12.5 12.5001 12.5h-5c-0.8841 0-1.7319 0.3512-2.357 0.9763-0.6252 0.6251-0.9763 1.473-0.9763 2.357l0 1.6667" />
      <path
        d="M10.0001 9.1667c1.8409 0 3.3333-1.4924 3.3333-3.3334 0-1.8409-1.4924-3.3333-3.3333-3.3333-1.841 0-3.3333 1.4924-3.3333 3.3333 0 1.841 1.4923 3.3334 3.3333 3.3334z" />
    </symbol>
    <symbol id="Website" viewBox="0 0 20 20" fill="none">
      <g stroke-width="1.66667" stroke="var(--color0, #777)" stroke-linecap="round" stroke-linejoin="round"
        clip-path="url(#clip0_25_130)">
        <path
          d="M10.0001 18.3333c4.6024 0 8.3333-3.7309 8.3333-8.3333 0-4.6024-3.7309-8.3333-8.3333-8.3333-4.6024 0-8.3333 3.7309-8.3333 8.3333 0 4.6024 3.7309 8.3333 8.3333 8.3333z" />
        <path
          d="M10.0001 1.6667C7.8603 3.9135 6.6668 6.8973 6.6668 10c0 3.1027 1.1935 6.0865 3.3333 8.3333 2.1398-2.2468 3.3333-5.2306 3.3333-8.3333s-1.1935-6.0865-3.3333-8.3333z" />
        <path d="M1.6668 10h16.6666" />
      </g>
      <defs>
        <clipPath id="clip0_25_130">
          <rect fill="#fff" width="20" height="20" />
        </clipPath>
      </defs>
    </symbol>
    <symbol id="StateEnterpr" viewBox="0 0 36 36" stroke-width="3" stroke="var(--color0, #777)" stroke-linecap="round"
      stroke-linejoin="round" fill="none">
      <path d="M18 24h0.015" />
      <path d="M24 24h0.015" />
      <path
        d="M4.5 28.5c0 0.7956 0.3161 1.5587 0.8787 2.1213C5.9413 31.1839 6.7044 31.5 7.5 31.5h21c0.7956 0 1.5587-0.3161 2.1213-0.8787S31.5 29.2956 31.5 28.5V12.75c1e-4-0.1345-0.0359-0.2667-0.1044-0.3825s-0.1668-0.2111-0.2848-0.2758c-0.1179-0.0647-0.2511-0.0965-0.3856-0.0921-0.1345 45e-4-0.2653 0.045-0.3787 0.1174l-6.693 4.266c-0.1134 0.0724-0.2442 0.1129-0.3787 0.1174-0.1345 44e-4-0.2677-0.0274-0.3856-0.0921-0.118-0.0647-0.2163-0.16-0.2848-0.2758S22.4999 15.8845 22.5 15.75v-3c1e-4-0.1345-0.0359-0.2667-0.1044-0.3825s-0.1668-0.2111-0.2848-0.2758c-0.1179-0.0647-0.2511-0.0965-0.3856-0.0921-0.1345 45e-4-0.2653 0.045-0.3787 0.1174l-6.6915 4.266c-0.1134 0.0728-0.2444 0.1136-0.3791 0.1183s-0.2682-0.0271-0.3864-0.0918c-0.1182-0.0648-0.2167-0.1603-0.2853-0.2763-0.0685-0.116-0.1045-0.2484-0.1042-0.3832V7.5c0-0.7957-0.3161-1.5587-0.8787-2.1213C12.0587 4.8161 11.2956 4.5 10.5 4.5h-3c-0.7957 0-1.5587 0.3161-2.1213 0.8787C4.8161 5.9413 4.5 6.7044 4.5 7.5z" />
      <path d="M12 24h0.015" />
    </symbol>
    <symbol id="Search" viewBox="0 0 32 32" stroke-width="3.33333" stroke="var(--color0, #777)" stroke-linecap="round"
      stroke-linejoin="round" fill="none">
      <path d="M28 28l-5.7866-5.7867" />
      <path
        d="M14.6667 25.3333c5.891 0 10.6666-4.7756 10.6666-10.6666C25.3333 8.7756 20.5577 4 14.6667 4 8.7756 4 4 8.7756 4 14.6667c0 5.891 4.7756 10.6666 10.6667 10.6666z" />
    </symbol>
    <symbol id="RightMenu" viewBox="0 0 20 20" fill="none">
      <path stroke-width="1.66667" stroke="var(--color0, #777)" stroke-linecap="round" stroke-linejoin="round"
        d="M7.5 15l5-5-5-5" />
    </symbol>
    <symbol id="Regions" viewBox="0 0 36 36" stroke-width="3" stroke="var(--color0, #777)" stroke-linecap="round"
      stroke-linejoin="round" fill="none">
      <path d="M32.31 22.5H25.5c-0.7956 0-1.5587 0.3161-2.1213 0.8787S22.5 24.7044 22.5 25.5v6.81" />
      <path
        d="M10.5 5.01V7.5c0 1.1935 0.4741 2.3381 1.318 3.182C12.6619 11.5259 13.8065 12 15 12c0.7956 0 1.5587 0.3161 2.1213 0.8787S18 14.2043 18 15c0 1.65 1.35 3 3 3 0.7957 0 1.5587-0.3161 2.1213-0.8787S24 15.7956 24 15c0-1.65 1.35-3 3-3h4.755" />
      <path
        d="M16.5 32.925V27c0-0.7956-0.3161-1.5587-0.8787-2.1213S14.2956 24 13.5 24c-0.7957 0-1.5588-0.3161-2.1214-0.8787S10.5 21.7956 10.5 21v-1.5c0-0.7956-0.3161-1.5587-0.8787-2.1213C9.0587 16.8161 8.2956 16.5 7.5 16.5H3.075" />
      <path
        d="M18 33c8.2843 0 15-6.7157 15-15 0-8.2843-6.7157-15-15-15C9.7157 3 3 9.7157 3 18c0 8.2843 6.7157 15 15 15z" />
    </symbol>
    <symbol id="RegAdmin" viewBox="0 0 36 36" stroke-width="3" stroke="var(--color0, #777)" stroke-linecap="round"
      stroke-linejoin="round" fill="none">
      <path
        d="M30 15c0 7.4895-8.3085 15.2895-11.0985 17.6985-0.2599 0.1954-0.5763 0.3011-0.9015 0.3011s-0.6416-0.1057-0.9015-0.3011C14.3085 30.2895 6 22.4895 6 15c0-3.1826 1.2643-6.2348 3.5147-8.4853C11.7652 4.2643 14.8174 3 18 3s6.2348 1.2643 8.4853 3.5147C28.7357 8.7652 30 11.8174 30 15z" />
      <path d="M18 19.5c2.4853 0 4.5-2.0147 4.5-4.5s-2.0147-4.5-4.5-4.5-4.5 2.0147-4.5 4.5 2.0147 4.5 4.5 4.5z" />
    </symbol>
    <symbol id="LeftArrow" viewBox="0 0 20 20" stroke-width="1.66667" stroke="var(--color0, #777)"
      stroke-linecap="round" stroke-linejoin="round" fill="none">
      <path d="M10.0001 15.8333 4.1668 10l5.8333-5.8333" />
      <path d="M15.8334 10H4.1668" />
    </symbol>
    <symbol id="LawEnfAgencies" viewBox="0 0 36 36" fill="none">
      <path stroke-width="3" stroke="var(--color0, #777)" stroke-linejoin="round"
        d="M30 19.5c0 7.5-5.25 11.25-11.49 13.425-0.3268 0.1107-0.6817 0.1054-1.005-0.015C11.25 30.75 6 27 6 19.5V9c0-0.3978 0.158-0.7794 0.4393-1.0607C6.7206 7.658 7.1022 7.5 7.5 7.5c3 0 6.75-1.8 9.36-4.08 0.3178-0.2715 0.722-0.4207 1.14-0.4207 0.418 0 0.8222 0.1492 1.14 0.4207 2.625 2.295 6.36 4.08 9.36 4.08 0.3978 0 0.7794 0.158 1.0607 0.4393C29.842 8.2206 30 8.6022 30 9z" />
    </symbol>
    <symbol id="Institutions" viewBox="0 0 36 36" stroke-width="3" stroke="var(--color0, #777)" stroke-linecap="round"
      stroke-linejoin="round" fill="none">
      <path d="M22.5 18H15" />
      <path d="M22.5 12H15" />
      <path d="M28.5 25.5v-18c0-0.7957-0.3161-1.5587-0.8787-2.1213C27.0587 4.8161 26.2956 4.5 25.5 4.5H6" />
      <path
        d="M12 31.5h18c0.7956 0 1.5587-0.3161 2.1213-0.8787S33 29.2956 33 28.5V27c0-0.3978-0.158-0.7794-0.4393-1.0607S31.8978 25.5 31.5 25.5h-15c-0.3978 0-0.7794 0.158-1.0607 0.4393S15 26.6022 15 27v1.5c0 0.7956-0.3161 1.5587-0.8787 2.1213S12.7956 31.5 12 31.5zM12 31.5c-0.7956 0-1.5587-0.3161-2.1213-0.8787C9.3161 30.0587 9 29.2956 9 28.5v-21c0-0.7957-0.3161-1.5587-0.8787-2.1213C7.5587 4.8161 6.7957 4.5 6 4.5S4.4413 4.8161 3.8787 5.3787C3.3161 5.9413 3 6.7044 3 7.5v3c0 0.3978 0.158 0.7794 0.4393 1.0607C3.7206 11.842 4.1022 12 4.5 12H9" />
    </symbol>
    <symbol id="Home" viewBox="0 0 28 28" stroke-width="2.33333" stroke="var(--color0, #777)" stroke-linecap="round"
      stroke-linejoin="round" fill="none">
      <path
        d="M17.5 24.5v-9.3333c0-0.3095-0.1229-0.6062-0.3417-0.825S16.6428 14 16.3333 14h-4.6666c-0.3095 0-0.6062 0.1229-0.825 0.3417S10.5 14.8572 10.5 15.1667V24.5" />
      <path
        d="M3.5 11.6667c-1e-4-0.3395 0.0739-0.6748 0.2168-0.9827 0.1428-0.3079 0.3511-0.5809 0.6104-0.8l8.1666-7C12.915 2.5281 13.4486 2.3328 14 2.3328c0.5514 0 1.085 0.1952 1.5062 0.5512l8.1666 7c0.2593 0.2191 0.4676 0.4921 0.6104 0.8 0.1429 0.3079 0.2169 0.6432 0.2168 0.9827v10.5c0 0.6188-0.2458 1.2123-0.6834 1.6499S22.7855 24.5 22.1667 24.5H5.8333c-0.6188 0-1.2123-0.2458-1.6499-0.6834C3.7458 23.379 3.5 22.7855 3.5 22.1667z" />
    </symbol>
    <symbol id="Frame" viewBox="0 0 72 72" stroke-width="6" stroke="var(--color0, #777)" stroke-linecap="round"
      stroke-linejoin="round" fill="none">
      <path
        d="M57 9H15c-3.3137 0-6 2.6863-6 6v42c0 3.3137 2.6863 6 6 6h42c3.3137 0 6-2.6863 6-6V15c0-3.3137-2.6863-6-6-6z" />
      <path d="M27 33c3.3137 0 6-2.6863 6-6s-2.6863-6-6-6-6 2.6863-6 6 2.6863 6 6 6z" />
      <path d="M63 45l-9.258-9.258c-1.1252-1.1248-2.651-1.7567-4.242-1.7567s-3.1168 0.6319-4.242 1.7567L18 63" />
    </symbol>
    <symbol id="Filter" viewBox="0 0 36 36" fill="none">
      <path stroke-width="3" stroke="var(--color0, #777)" stroke-linejoin="round"
        d="M14.9999 30c-1e-4 0.2787 0.0775 0.552 0.224 0.7892 0.1465 0.2371 0.3562 0.4287 0.6055 0.5533l3 1.5c0.2288 0.1143 0.483 0.1682 0.7384 0.1567 0.2555-0.0116 0.5037-0.0883 0.7212-0.2228s0.3969-0.3224 0.5214-0.5458c0.1244-0.2234 0.1897-0.4749 0.1895-0.7306V21c4e-4-0.7434 0.2767-1.4602 0.7755-2.0115L32.6099 7.005c0.1942-0.2152 0.3219-0.482 0.3677-0.7682 0.0458-0.2862 76e-4-0.5795-0.1098-0.8445-0.1174-0.265-0.3091-0.4903-0.5518-0.6486-0.2428-0.1584-0.5262-0.243-0.8161-0.2437h-27c-0.29 1e-4-0.5739 0.0843-0.8171 0.2424-0.2432 0.1582-0.4353 0.3834-0.5531 0.6485C3.0119 5.656 2.9735 5.9496 3.0192 6.2361 3.0648 6.5226 3.1926 6.7897 3.387 7.005l10.8374 11.9835c0.4989 0.5513 0.7752 1.2681 0.7755 2.0115z" />
    </symbol>
    <symbol id="Education" viewBox="0 0 36 36" stroke-width="3" stroke="var(--color0, #777)" stroke-linecap="round"
      stroke-linejoin="round" fill="none">
      <path d="M15 3v12l4.5-4.5L24 15V3" />
      <path
        d="M6 29.25V6.75c0-0.9946 0.3951-1.9484 1.0984-2.6516C7.8016 3.3951 8.7554 3 9.75 3H28.5c0.3978 0 0.7794 0.158 1.0607 0.4393C29.842 3.7206 30 4.1022 30 4.5v27c0 0.3978-0.158 0.7794-0.4393 1.0607S28.8978 33 28.5 33H9.75c-0.9946 0-1.9484-0.3951-2.6516-1.0983C6.3951 31.1984 6 30.2446 6 29.25zM6 29.25c0-0.9946 0.3951-1.9484 1.0984-2.6517C7.8016 25.8951 8.7554 25.5 9.75 25.5H30" />
    </symbol>
    <symbol id="Court" viewBox="0 0 36 36" stroke-width="3" stroke="var(--color0, #777)" stroke-linecap="round"
      stroke-linejoin="round" fill="none">
      <path d="M18 4.5v27" />
      <path d="M28.5 12 33 24c-1.2982 0.9737-2.8772 1.5-4.5 1.5S25.2982 24.9737 24 24zM28.5 12v-1.5" />
      <path d="M4.5 10.5H6c4.1856 0 8.3068-1.0303 12-3 3.6932 1.9697 7.8144 3 12 3h1.5" />
      <path d="M7.5 12 12 24c-1.2982 0.9737-2.8772 1.5-4.5 1.5S4.2982 24.9737 3 24zM7.5 12v-1.5" />
      <path d="M10.5 31.5h15" />
    </symbol>
    <symbol id="Catalog" viewBox="0 0 28 28" stroke-width="2.33333" stroke="var(--color0, #777)" stroke-linecap="round"
      stroke-linejoin="round" fill="none">
      <path
        d="M10.5 3.5H4.6667C4.0223 3.5 3.5 4.0223 3.5 4.6667V10.5c0 0.6443 0.5223 1.1667 1.1667 1.1667H10.5c0.6443 0 1.1667-0.5224 1.1667-1.1667V4.6667C11.6667 4.0223 11.1443 3.5 10.5 3.5z" />
      <path
        d="M23.3333 3.5h-5.8334c-0.6443 0-1.1666 0.5223-1.1666 1.1667V10.5c0 0.6443 0.5223 1.1667 1.1666 1.1667h5.8334c0.6443 0 1.1666-0.5224 1.1666-1.1667V4.6667c0-0.6444-0.5223-1.1667-1.1666-1.1667z" />
      <path
        d="M23.3333 16.3333h-5.8334c-0.6443 0-1.1666 0.5224-1.1666 1.1667v5.8333c0 0.6444 0.5223 1.1667 1.1666 1.1667h5.8334c0.6443 0 1.1666-0.5223 1.1666-1.1667V17.5c0-0.6443-0.5223-1.1667-1.1666-1.1667z" />
      <path
        d="M10.5 16.3333H4.6667C4.0223 16.3333 3.5 16.8557 3.5 17.5v5.8333C3.5 23.9777 4.0223 24.5 4.6667 24.5H10.5c0.6443 0 1.1667-0.5223 1.1667-1.1667V17.5c0-0.6443-0.5224-1.1667-1.1667-1.1667z" />
    </symbol>
    <symbol id="CabMin" viewBox="0 0 36 36" stroke-width="3" stroke="var(--color0, #777)" stroke-linecap="round"
      stroke-linejoin="round" fill="none">
      <path d="M15 27V16.5" />
      <path
        d="M16.6785 3.3075C17.0898 3.1057 17.5419 3.0008 18 3.0008c0.4581 0 0.9102 0.1049 1.3215 0.3067l11.76 5.769c0.1523 0.0746 0.2748 0.1987 0.3475 0.3519 0.0728 0.1532 0.0914 0.3265 0.053 0.4917-0.0385 0.1652-0.1318 0.3125-0.2648 0.4178-0.1329 0.1053-0.2976 0.1624-0.4672 0.1621H5.25c-0.1695 0-0.3339-0.0574-0.4666-0.1628-0.1327-0.1055-0.2258-0.2527-0.264-0.4178C4.4811 9.7543 4.4999 9.5811 4.5726 9.428 4.6454 9.275 4.7678 9.1511 4.92 9.0765z" />
      <path d="M21 27V16.5" />
      <path d="M27 27V16.5" />
      <path d="M4.5 33h27" />
      <path d="M9 27V16.5" />
    </symbol>
    <symbol id="BottomMenu" viewBox="0 0 20 20" fill="none">
      <path stroke-width="1.66667" stroke="var(--color0, #777)" stroke-linecap="round" stroke-linejoin="round"
        d="M5 7.5l5 5 5-5" />
    </symbol>
  </defs>
</svg>